<svg xmlns="http://www.w3.org/2000/svg" viewBox="0 0 3103.414 1024"><defs><style>.a{fill:#56bc94;}.b{fill:#fff;}.c{opacity:0.2;}.d{fill:none;}</style></defs><title>logo-fs-full</title><polygon class="a" points="443.5 0 886 256 886 768 443 1024 0 768 0 256 443.5 0"/><polygon class="b" points="443 512.25 147 683.125 443 853.063 739 682.5 739 513 443 682.656 443 512.25"/><polygon class="c" points="443.5 512 590.62 768 443 853.063 443.5 512"/><polygon class="b" points="443 171 739 341 443.5 512 443 341 147 512 147 341 443 171"/><polygon class="c" points="443 171 295 256 443.5 512 443 171"/><rect class="d" width="886" height="1023"/><path d="M1213.428,721.534v-58.8l210.6-298.8v-4.2l-198,4.2v-61.8h279.6v58.8l-207.6,299.4v3l210-3v61.2Z" transform="translate(-69 -1)"/><path d="M1579.423,267.334h69.6v106.8q50.4-11.391,84.6-11.4,118.8,0,118.8,178.2,0,188.411-130.2,188.4-27.6,0-70.2-7.2t-72.6-17.4Zm69.6,396q34.792,8.41,66,8.4,31.191,0,40.8-9,24.6-20.391,24.6-132,0-57.6-7.2-85.2-3.009-12-11.4-17.1-8.408-5.09-15-6-6.609-.9-22.8-.9-33,0-75,12Z" transform="translate(-69 -1)"/><path d="M2211.222,546.334q0,90-32.4,136.5t-109.5,46.5q-77.1,0-109.8-46.5-32.71-46.491-32.7-136.5t32.7-136.8q32.7-46.8,109.8-46.8t109.5,46.8Q2211.222,456.334,2211.222,546.334Zm-197.7,102.9q14.7,24.905,56.1,24.9t55.8-24.9q14.4-24.891,14.4-103.2t-14.4-102.9q-14.4-24.6-55.8-24.6t-56.1,24.6q-14.71,24.609-14.7,102.9T2013.522,649.234Z" transform="translate(-69 -1)"/><path d="M2253.817,721.534l109.2-183.6-105.6-167.4h76.8l69,129h3.6l67.8-129h76.8l-105.6,168,109.2,183h-79.2l-70.2-141.6h-3.6l-69,141.6Z" transform="translate(-69 -1)"/><path d="M2623.417,721.534v-419.4h226.8v63l-157.2-1.8-2.4,117h140.4v58.8h-140.4l3,182.4Z" transform="translate(-69 -1)"/><path d="M3047.614,666.334q52.792,0,52.8-57.6,0-24.595-19.8-41.4-19.8-16.79-54.9-32.7-35.1-15.891-40.2-18.6t-18.3-9.9q-13.206-7.2-18.3-12t-14.4-14.1q-9.309-9.3-12.9-18.9-10.208-25.791-10.2-50.4,0-50.991,35.1-83.7t99.9-32.7a339.429,339.429,0,0,1,93.6,13.2l16.2,4.2-11.4,58.8q-65.405-12.6-99.9-12.6t-47.7,11.1q-13.206,11.109-13.2,35.4t16.5,37.8a189.629,189.629,0,0,0,38.4,24q21.9,10.5,35.4,16.5t20.4,9.3q6.891,3.3,18.9,10.2a123.586,123.586,0,0,1,18.6,12.6q6.595,5.71,15.6,15a65.266,65.266,0,0,1,13.2,18.9,113.628,113.628,0,0,1,11.4,50.4q0,58.2-37.8,94.2t-99,36q-31.2,0-65.1-9t-51.9-18l-18.6-9.6q5.4-16.2,9-26.1t6-16.8q2.391-6.891,5.4-14.7Q2989.405,666.339,3047.614,666.334Z" transform="translate(-69 -1)"/></svg>