<svg xmlns="http://www.w3.org/2000/svg" viewBox="0 0 886 1024"><defs><style>.cls-1{fill:#56bc94;}.cls-2{fill:#fff;}.cls-3{opacity:0.2;}.cls-4{fill:none;}</style></defs><title>Zbox</title><g id="Layer_2" data-name="Layer 2"><g id="outline"><polygon class="cls-1" points="443.5 0 886 256 886 768 443 1024 0 768 0 256 443.5 0"/></g><g id="lower"><polygon id="shape" class="cls-2" points="443 512.25 147 683.13 443 853.06 739 682.5 739 513 443 682.66 443 512.25"/><polygon id="shadow" class="cls-3" points="443.5 512 590.62 768 443 853.06 443.5 512"/></g><g id="upper"><polygon id="shape-2" data-name="shape" class="cls-2" points="443 171 739 341 443.5 512 443 341 147 512 147 341 443 171"/><polygon id="shadow-2" data-name="shadow" class="cls-3" points="443 171 295 256 443.5 512 443 171"/><rect id="_Slice_" data-name="&lt;Slice&gt;" class="cls-4" width="886" height="1023"/></g></g></svg>